# xmcd CD database file
#
# Track frame offsets:
#	150
#	8232
#	17877
#	28405
#	40132
#	51937
#	100685
#	119752
#	150450
#	176972
#	190275
#	204085
#	224530
#	231047
#	259887
#
# Disc length: 3935 seconds
#
# Revision: 0
# Processed by: cddbd v1.5.1PL0 Copyright (c) Steve Scherf et al.
# Submitted via: CDex 1.51
#
DISCID=d40f5d0f
DTITLE=東京六大学混声合唱連盟 - 第41回定期演奏会 Disc2
DYEAR=1999
DGENRE=Classical
TTITLE0=Five Flower Songs - 水仙に寄せて /柏葉
TTITLE1=Five Flower Songs - 続いてやってくる四つの甘い月々よ /柏葉
TTITLE2=Five Flower Songs - 沼に咲く花 /柏葉
TTITLE3=Five Flower Songs - 月見草 /柏葉
TTITLE4=Five Flower Songs - 緑のエニシダのバラード /柏葉
TTITLE5=Stabat Mater /早混
TTITLE6=歌劇「カルメン」より第４幕行進曲 /明混
TTITLE7=歌劇「カｳﾞｧレリア・ルススティカーナ」より開幕の合唱 /明混
TTITLE8=歌劇「ドン・カルロ」より民衆の合唱 /明混
TTITLE9=Gloria - Gloria in excelsis Deo /合同演奏
TTITLE10=Gloria - Laudamus te /合同演奏
TTITLE11=Gloria - Domine Deus /合同演奏
TTITLE12=Gloria - Domine Fili unigenite /合同演奏
TTITLE13=Gloria - Domine Deus, Agnus Dei /合同演奏
TTITLE14=Gloria - Qui sedes ad dexteram Patris /合同演奏
EXTD=YEAR: 1999
EXTT0=
EXTT1=
EXTT2=
EXTT3=
EXTT4=
EXTT5=
EXTT6=
EXTT7=
EXTT8=
EXTT9=
EXTT10=
EXTT11=
EXTT12=
EXTT13=
EXTT14=
PLAYORDER=
